Paul Javal is a writer who is hired to make a script for a new movie about Ulysses more commercial, which is to be directed by Fritz Lang and produced by Jeremy Prokosch. But because he let his wife Camille drive with Prokosch and he is late, she believes, he uses her as a sort of present for Prokosch to get get a better payment. So the relationship ends.


Director: Jean-Luc Godard
Stars: Brigitte Bardot, Michel Piccoli, Jack Palance

Format                                   : MPEG-4
Format profile                           : Base Media
Codec ID                                 : isom
File size                                : 1.45 GiB
Duration                                 : 1h 43mn
Overall bit rate mode                    : Variable
Overall bit rate                         : 2 014 Kbps
Movie name                               : Le mépris*1963 /Sjanyk
Performer                                : Jean-Luc Godard
Encoded date                             : UTC 2013-03-25 17:19:17
Tagged date                              : UTC 2013-03-25 17:19:17

Video
ID                                       : 1
Format                                   : AVC
Format/Info                              : Advanced Video Codec
Format profile                           : High@L3.1
Format settings, CABAC                   : Yes
Format settings, ReFrames                : 5 frames
Codec ID                                 : avc1
Codec ID/Info                            : Advanced Video Coding
Duration                                 : 1h 43mn
Bit rate                                 : 1 882 Kbps
Maximum bit rate                         : 7 547 Kbps
Width                                    : 960 pixels
Height                                   : 408 pixels
Display aspect ratio                     : 2.35:1
Frame rate mode                          : Constant
Frame rate                               : 24.000 fps
Color space                              : YUV
Chroma subsampling                       : 4:2:0
Bit depth                                : 8 bits
Scan type                                : Progressive
Bits/(Pixel*Frame)                       : 0.200
Stream size                              : 1.36 GiB (93%)
Title                                    : Contempt
Writing library                          : x264 core 129 r2245 bc13772
Encoding settings                        : cabac=1 / ref=5 / deblock=1:-2:-3 / analyse=0x3:0x113 / me=umh / subme=8 / psy=1 / psy_rd=1.00:0.15 / mixed_ref=1 / me_range=16 / chroma_me=1 / trellis=1 / 8x8dct=1 / cqm=0 / deadzone=21,11 / fast_pskip=1 / chroma_qp_offset=-3 / threads=3 / lookahead_threads=1 / sliced_threads=0 / nr=0 / decimate=1 / interlaced=0 / bluray_compat=0 / constrained_intra=0 / bframes=3 / b_pyramid=2 / b_adapt=2 / b_bias=0 / direct=3 / weightb=1 / open_gop=0 / weightp=2 / keyint=240 / keyint_min=24 / scenecut=30 / intra_refresh=0 / rc_lookahead=50 / rc=2pass / mbtree=1 / bitrate=1882 / ratetol=1.0 / qcomp=0.60 / qpmin=0 / qpmax=69 / qpstep=4 / cplxblur=20.0 / qblur=0.5 / ip_ratio=1.40 / aq=1:1.00
Encoded date                             : UTC 2013-03-25 17:19:17
Tagged date                              : UTC 2013-03-25 17:23:03

Audio
ID                                       : 2
Format                                   : AAC
Format/Info                              : Advanced Audio Codec
Format profile                           : LC
Codec ID                                 : 40
Duration                                 : 1h 43mn
Bit rate mode                            : Variable
Bit rate                                 : 128 Kbps
Maximum bit rate                         : 145 Kbps
Channel(s)                               : 2 channels
Channel positions                        : Front: L R
Sampling rate                            : 48.0 KHz
Compression mode                         : Lossy
Stream size                              : 94.3 MiB (6%)
Title                                    : Contempt
Language                                 : French
Encoded date                             : UTC 2013-03-22 03:24:11
Tagged date                              : UTC 2013-03-25 17:23:03

+ Ukrainian subtitles

Screenshots: 
http://s19.postimg.org/v19jhkffn/sc_01.png 
http://s19.postimg.org/ym5f0sjz7/sc_03.png 
http://s19.postimg.org/sz923bhgj/sc_05.png 
http://s19.postimg.org/ptogd3yub/sc_06.png 
http://s19.postimg.org/jh9b39vs3/sc_07.png 
http://s19.postimg.org/5c83f7c4j/sc_10.png 
http://s19.postimg.org/xqdiz2zoj/sc_11.png

English subtitles here http://www.opensubtitles.org/en/subtitles/4997324/le-mepris-en